<svg width="43" height="47" viewBox="0 0 43 47" fill="none" xmlns="http://www.w3.org/2000/svg">
<g filter="url(#filter0_d_3_176)">
<path d="M12.0541 36.5C14.8453 36.5 17.1081 34.2372 17.1081 31.4459C17.1081 28.6547 14.8453 26.3919 12.0541 26.3919C9.26279 26.3919 7 28.6547 7 31.4459C7 34.2372 9.26279 36.5 12.0541 36.5Z" stroke="#FFBB0C" stroke-width="5" stroke-linecap="round" stroke-linejoin="round"/>
<path d="M36.4054 27.5065V6.99635C36.4054 2.62534 33.6559 2.02012 30.8726 2.77664L20.3468 5.63461C18.4238 6.15577 17.1081 7.66881 17.1081 9.85432V13.5024V15.9569V30.9865" stroke="#FFBB0C" stroke-width="5" stroke-linecap="round" stroke-linejoin="round"/>
<path d="M31.3514 32.8243C34.1426 32.8243 36.4054 30.356 36.4054 27.3108C36.4054 24.2658 34.1426 21.7973 31.3514 21.7973C28.56 21.7973 26.2973 24.2658 26.2973 27.3108C26.2973 30.356 28.56 32.8243 31.3514 32.8243Z" stroke="#FFBB0C" stroke-width="5" stroke-linecap="round" stroke-linejoin="round"/>
<path d="M17.1081 15.3649L36.4054 9.85135" stroke="#FFBB0C" stroke-width="5" stroke-linecap="round" stroke-linejoin="round"/>
</g>
<defs>
<filter id="filter0_d_3_176" x="0.5" y="0.000183105" width="42.406" height="46.9998" filterUnits="userSpaceOnUse" color-interpolation-filters="sRGB">
<feFlood flood-opacity="0" result="BackgroundImageFix"/>
<feColorMatrix in="SourceAlpha" type="matrix" values="0 0 0 0 0 0 0 0 0 0 0 0 0 0 0 0 0 0 127 0" result="hardAlpha"/>
<feOffset dy="4"/>
<feGaussianBlur stdDeviation="2"/>
<feComposite in2="hardAlpha" operator="out"/>
<feColorMatrix type="matrix" values="0 0 0 0 0.316667 0 0 0 0 0.256447 0 0 0 0 0.101597 0 0 0 0.16 0"/>
<feBlend mode="normal" in2="BackgroundImageFix" result="effect1_dropShadow_3_176"/>
<feBlend mode="normal" in="SourceGraphic" in2="effect1_dropShadow_3_176" result="shape"/>
</filter>
</defs>
</svg>
