<svg width="21" height="20" viewBox="0 0 21 20" fill="none" xmlns="http://www.w3.org/2000/svg">
<g filter="url(#filter0_d_3_157)">
<path d="M15.6681 0.267421H12.064C11.6315 0.267421 11.3432 0.55559 11.3432 0.987843V4.58995L6.00904 0.411505C5.79279 0.267421 5.50446 0.195379 5.28821 0.339464C4.99988 0.483548 4.85571 0.699674 4.85571 0.987843V11.0737C4.85571 11.3619 4.99988 11.578 5.28821 11.7221C5.36029 11.7942 5.50446 11.7942 5.57654 11.7942C5.72071 11.7942 5.86487 11.7221 6.00904 11.6501L11.3432 7.47164V11.0737C11.3432 11.506 11.6315 11.7942 12.064 11.7942H15.6681C16.1006 11.7942 16.389 11.506 16.389 11.0737V0.987843C16.389 0.55559 16.1006 0.267421 15.6681 0.267421Z" fill="#FFB800"/>
</g>
<defs>
<filter id="filter0_d_3_157" x="0.855713" y="0.260925" width="19.5332" height="19.5333" filterUnits="userSpaceOnUse" color-interpolation-filters="sRGB">
<feFlood flood-opacity="0" result="BackgroundImageFix"/>
<feColorMatrix in="SourceAlpha" type="matrix" values="0 0 0 0 0 0 0 0 0 0 0 0 0 0 0 0 0 0 127 0" result="hardAlpha"/>
<feOffset dy="4"/>
<feGaussianBlur stdDeviation="2"/>
<feComposite in2="hardAlpha" operator="out"/>
<feColorMatrix type="matrix" values="0 0 0 0 1 0 0 0 0 0.732833 0 0 0 0 0.0458333 0 0 0 0.4 0"/>
<feBlend mode="normal" in2="BackgroundImageFix" result="effect1_dropShadow_3_157"/>
<feBlend mode="normal" in="SourceGraphic" in2="effect1_dropShadow_3_157" result="shape"/>
</filter>
</defs>
</svg>
