<svg width="21" height="20" viewBox="0 0 21 20" fill="none" xmlns="http://www.w3.org/2000/svg">
<g filter="url(#filter0_d_3_200)">
<path d="M5.33188 0.267421H8.93601C9.36851 0.267421 9.65684 0.55559 9.65684 0.987843V4.58995L14.991 0.411505C15.2072 0.267421 15.4955 0.195379 15.7118 0.339464C16.0001 0.483548 16.1443 0.699674 16.1443 0.987843V11.0737C16.1443 11.3619 16.0001 11.578 15.7118 11.7221C15.6397 11.7942 15.4955 11.7942 15.4235 11.7942C15.2793 11.7942 15.1351 11.7221 14.991 11.6501L9.65684 7.47164V11.0737C9.65684 11.506 9.36851 11.7942 8.93601 11.7942H5.33188C4.89938 11.7942 4.61105 11.506 4.61105 11.0737V0.987843C4.61105 0.55559 4.89938 0.267421 5.33188 0.267421Z" fill="#FFBB0C"/>
</g>
<defs>
<filter id="filter0_d_3_200" x="0.611084" y="0.260925" width="19.5332" height="19.5333" filterUnits="userSpaceOnUse" color-interpolation-filters="sRGB">
<feFlood flood-opacity="0" result="BackgroundImageFix"/>
<feColorMatrix in="SourceAlpha" type="matrix" values="0 0 0 0 0 0 0 0 0 0 0 0 0 0 0 0 0 0 127 0" result="hardAlpha"/>
<feOffset dy="4"/>
<feGaussianBlur stdDeviation="2"/>
<feComposite in2="hardAlpha" operator="out"/>
<feColorMatrix type="matrix" values="0 0 0 0 1 0 0 0 0 0.732833 0 0 0 0 0.0458333 0 0 0 0.4 0"/>
<feBlend mode="normal" in2="BackgroundImageFix" result="effect1_dropShadow_3_200"/>
<feBlend mode="normal" in="SourceGraphic" in2="effect1_dropShadow_3_200" result="shape"/>
</filter>
</defs>
</svg>
