<svg width="218" height="218" viewBox="0 0 218 218" fill="none" xmlns="http://www.w3.org/2000/svg">
<g filter="url(#filter0_dd_3_223)">
<rect x="5" y="4" width="208" height="208" rx="4" fill="#FFBB0C"/>
<rect x="5" y="4" width="208" height="208" rx="4" fill="url(#paint0_linear_3_223)" fill-opacity="0.2"/>
</g>
<g filter="url(#filter1_d_3_223)">
<path d="M84.7838 151C91.8441 151 97.5676 145.276 97.5676 138.216C97.5676 131.156 91.8441 125.432 84.7838 125.432C77.7235 125.432 72 131.156 72 138.216C72 145.276 77.7235 151 84.7838 151Z" stroke="white" stroke-width="5" stroke-linecap="round" stroke-linejoin="round"/>
<path d="M146.378 128.252V76.3731C146.378 65.317 139.424 63.7862 132.384 65.6997L105.759 72.9287C100.895 74.2469 97.5675 78.074 97.5675 83.6021V92.8297V99.0381V137.054" stroke="white" stroke-width="5" stroke-linecap="round" stroke-linejoin="round"/>
<path d="M133.595 141.703C140.655 141.703 146.378 135.459 146.378 127.757C146.378 120.055 140.655 113.811 133.595 113.811C126.534 113.811 120.811 120.055 120.811 127.757C120.811 135.459 126.534 141.703 133.595 141.703Z" stroke="white" stroke-width="5" stroke-linecap="round" stroke-linejoin="round"/>
<path d="M97.5675 97.5405L146.378 83.5946" stroke="white" stroke-width="5" stroke-linecap="round" stroke-linejoin="round"/>
</g>
<defs>
<filter id="filter0_dd_3_223" x="0" y="0" width="218" height="218" filterUnits="userSpaceOnUse" color-interpolation-filters="sRGB">
<feFlood flood-opacity="0" result="BackgroundImageFix"/>
<feColorMatrix in="SourceAlpha" type="matrix" values="0 0 0 0 0 0 0 0 0 0 0 0 0 0 0 0 0 0 127 0" result="hardAlpha"/>
<feOffset dx="-1" dy="2"/>
<feGaussianBlur stdDeviation="2"/>
<feComposite in2="hardAlpha" operator="out"/>
<feColorMatrix type="matrix" values="0 0 0 0 1 0 0 0 0 0.732833 0 0 0 0 0.0458333 0 0 0 0.36 0"/>
<feBlend mode="normal" in2="BackgroundImageFix" result="effect1_dropShadow_3_223"/>
<feColorMatrix in="SourceAlpha" type="matrix" values="0 0 0 0 0 0 0 0 0 0 0 0 0 0 0 0 0 0 127 0" result="hardAlpha"/>
<feOffset dx="1"/>
<feGaussianBlur stdDeviation="2"/>
<feComposite in2="hardAlpha" operator="out"/>
<feColorMatrix type="matrix" values="0 0 0 0 1 0 0 0 0 0.732833 0 0 0 0 0.0458333 0 0 0 0.4 0"/>
<feBlend mode="normal" in2="effect1_dropShadow_3_223" result="effect2_dropShadow_3_223"/>
<feBlend mode="normal" in="SourceGraphic" in2="effect2_dropShadow_3_223" result="shape"/>
</filter>
<filter id="filter1_d_3_223" x="65.5" y="62.5002" width="87.3789" height="98.9998" filterUnits="userSpaceOnUse" color-interpolation-filters="sRGB">
<feFlood flood-opacity="0" result="BackgroundImageFix"/>
<feColorMatrix in="SourceAlpha" type="matrix" values="0 0 0 0 0 0 0 0 0 0 0 0 0 0 0 0 0 0 127 0" result="hardAlpha"/>
<feOffset dy="4"/>
<feGaussianBlur stdDeviation="2"/>
<feComposite in2="hardAlpha" operator="out"/>
<feColorMatrix type="matrix" values="0 0 0 0 0.316667 0 0 0 0 0.256447 0 0 0 0 0.101597 0 0 0 0.15 0"/>
<feBlend mode="normal" in2="BackgroundImageFix" result="effect1_dropShadow_3_223"/>
<feBlend mode="normal" in="SourceGraphic" in2="effect1_dropShadow_3_223" result="shape"/>
</filter>
<linearGradient id="paint0_linear_3_223" x1="5" y1="7.5" x2="192" y2="206" gradientUnits="userSpaceOnUse">
<stop stop-color="white" stop-opacity="0"/>
<stop offset="1" stop-color="#FF7A00"/>
</linearGradient>
</defs>
</svg>
